<mxfile host="app.diagrams.net" modified="2023-07-02T14:37:20.411Z" agent="Mozilla/5.0 (Windows NT 10.0; Win64; x64) AppleWebKit/537.36 (KHTML, like Gecko) Chrome/114.0.0.0 Safari/537.36" etag="HoSLSbVSQ21dQXsX6m-q" version="21.5.1" type="device">
  <diagram name="Page-1" id="74e2e168-ea6b-b213-b513-2b3c1d86103e">
    <mxGraphModel dx="1050" dy="573" grid="1" gridSize="10" guides="1" tooltips="1" connect="1" arrows="1" fold="1" page="1" pageScale="1" pageWidth="1100" pageHeight="850" background="none" math="0" shadow="0">
      <root>
        <mxCell id="0" />
        <mxCell id="1" parent="0" />
        <mxCell id="P0zgonmj9w7HssFHgXfM-4" style="edgeStyle=orthogonalEdgeStyle;rounded=0;orthogonalLoop=1;jettySize=auto;html=1;exitX=0.75;exitY=0;exitDx=0;exitDy=0;" edge="1" parent="1" source="P0zgonmj9w7HssFHgXfM-1">
          <mxGeometry relative="1" as="geometry">
            <mxPoint x="390" y="330" as="targetPoint" />
          </mxGeometry>
        </mxCell>
        <mxCell id="P0zgonmj9w7HssFHgXfM-21" style="edgeStyle=orthogonalEdgeStyle;rounded=0;orthogonalLoop=1;jettySize=auto;html=1;exitX=1;exitY=0.5;exitDx=0;exitDy=0;entryX=0;entryY=0.5;entryDx=0;entryDy=0;" edge="1" parent="1" source="P0zgonmj9w7HssFHgXfM-1" target="P0zgonmj9w7HssFHgXfM-2">
          <mxGeometry relative="1" as="geometry" />
        </mxCell>
        <mxCell id="P0zgonmj9w7HssFHgXfM-1" value="read_track" style="rounded=1;whiteSpace=wrap;html=1;" vertex="1" parent="1">
          <mxGeometry x="300" y="395" width="120" height="60" as="geometry" />
        </mxCell>
        <mxCell id="P0zgonmj9w7HssFHgXfM-19" style="edgeStyle=orthogonalEdgeStyle;rounded=0;orthogonalLoop=1;jettySize=auto;html=1;exitX=0.5;exitY=0;exitDx=0;exitDy=0;entryX=0.5;entryY=1;entryDx=0;entryDy=0;" edge="1" parent="1" source="P0zgonmj9w7HssFHgXfM-2" target="P0zgonmj9w7HssFHgXfM-18">
          <mxGeometry relative="1" as="geometry" />
        </mxCell>
        <mxCell id="P0zgonmj9w7HssFHgXfM-2" value="print_track" style="rounded=1;whiteSpace=wrap;html=1;" vertex="1" parent="1">
          <mxGeometry x="580" y="395" width="120" height="60" as="geometry" />
        </mxCell>
        <mxCell id="P0zgonmj9w7HssFHgXfM-5" value="track" style="text;html=1;align=center;verticalAlign=middle;resizable=0;points=[];autosize=1;strokeColor=none;fillColor=none;" vertex="1" parent="1">
          <mxGeometry x="400" y="350" width="50" height="30" as="geometry" />
        </mxCell>
        <mxCell id="P0zgonmj9w7HssFHgXfM-15" style="edgeStyle=orthogonalEdgeStyle;rounded=0;orthogonalLoop=1;jettySize=auto;html=1;exitX=0.75;exitY=0;exitDx=0;exitDy=0;entryX=0.75;entryY=1;entryDx=0;entryDy=0;" edge="1" parent="1" source="P0zgonmj9w7HssFHgXfM-7" target="P0zgonmj9w7HssFHgXfM-14">
          <mxGeometry relative="1" as="geometry" />
        </mxCell>
        <mxCell id="P0zgonmj9w7HssFHgXfM-23" style="edgeStyle=orthogonalEdgeStyle;rounded=0;orthogonalLoop=1;jettySize=auto;html=1;exitX=1;exitY=0.5;exitDx=0;exitDy=0;entryX=0;entryY=0.5;entryDx=0;entryDy=0;" edge="1" parent="1" source="P0zgonmj9w7HssFHgXfM-7" target="P0zgonmj9w7HssFHgXfM-18">
          <mxGeometry relative="1" as="geometry" />
        </mxCell>
        <mxCell id="P0zgonmj9w7HssFHgXfM-7" value="read_tracks" style="rounded=1;whiteSpace=wrap;html=1;" vertex="1" parent="1">
          <mxGeometry x="300" y="270" width="120" height="60" as="geometry" />
        </mxCell>
        <mxCell id="P0zgonmj9w7HssFHgXfM-12" style="edgeStyle=orthogonalEdgeStyle;rounded=0;orthogonalLoop=1;jettySize=auto;html=1;exitX=0.25;exitY=0;exitDx=0;exitDy=0;" edge="1" parent="1" source="P0zgonmj9w7HssFHgXfM-11">
          <mxGeometry relative="1" as="geometry">
            <mxPoint x="390" y="460" as="targetPoint" />
          </mxGeometry>
        </mxCell>
        <mxCell id="P0zgonmj9w7HssFHgXfM-11" value="main" style="rounded=1;whiteSpace=wrap;html=1;" vertex="1" parent="1">
          <mxGeometry x="420" y="520" width="160" height="60" as="geometry" />
        </mxCell>
        <mxCell id="P0zgonmj9w7HssFHgXfM-13" value="a_file" style="text;html=1;align=center;verticalAlign=middle;resizable=0;points=[];autosize=1;strokeColor=none;fillColor=none;" vertex="1" parent="1">
          <mxGeometry x="410" y="460" width="50" height="30" as="geometry" />
        </mxCell>
        <mxCell id="P0zgonmj9w7HssFHgXfM-14" value="read_album" style="rounded=1;whiteSpace=wrap;html=1;" vertex="1" parent="1">
          <mxGeometry x="300" y="150" width="120" height="60" as="geometry" />
        </mxCell>
        <mxCell id="P0zgonmj9w7HssFHgXfM-16" value="tracks" style="text;html=1;align=center;verticalAlign=middle;resizable=0;points=[];autosize=1;strokeColor=none;fillColor=none;" vertex="1" parent="1">
          <mxGeometry x="390" y="218" width="60" height="30" as="geometry" />
        </mxCell>
        <mxCell id="P0zgonmj9w7HssFHgXfM-18" value="print_tracks" style="rounded=1;whiteSpace=wrap;html=1;" vertex="1" parent="1">
          <mxGeometry x="580" y="270" width="120" height="60" as="geometry" />
        </mxCell>
        <mxCell id="P0zgonmj9w7HssFHgXfM-22" value="class" style="text;html=1;align=center;verticalAlign=middle;resizable=0;points=[];autosize=1;strokeColor=none;fillColor=none;" vertex="1" parent="1">
          <mxGeometry x="455" y="388" width="50" height="30" as="geometry" />
        </mxCell>
        <mxCell id="P0zgonmj9w7HssFHgXfM-24" value="tracks(array)" style="text;html=1;align=center;verticalAlign=middle;resizable=0;points=[];autosize=1;strokeColor=none;fillColor=none;" vertex="1" parent="1">
          <mxGeometry x="435" y="258" width="90" height="30" as="geometry" />
        </mxCell>
      </root>
    </mxGraphModel>
  </diagram>
</mxfile>
